<svg width="16" height="17" viewBox="0 0 16 17" fill="none" xmlns="http://www.w3.org/2000/svg">
<path d="M0.5 6.42871C0.49718 5.44448 0.855762 4.51724 1.51367 3.79199L1.64941 3.64941C2.39008 2.90875 3.37528 2.50008 4.42285 2.5C5.40757 2.5 6.33843 2.86184 7.06445 3.52051L7.20703 3.65625L8.00488 4.4541L8.7959 3.66309C9.54009 2.91889 10.5262 2.50977 11.5771 2.50977C12.563 2.50983 13.4874 2.86694 14.2119 3.52441L14.3545 3.65918C15.0515 4.35617 15.4513 5.26544 15.4961 6.24219L15.5 6.43848V6.44043C15.4999 7.42544 15.1412 8.35295 14.4834 9.07812L14.3477 9.21973L7.99609 15.5469L1.65625 9.20703C0.911069 8.46185 0.5 7.4793 0.5 6.42969V6.42871Z" stroke="black"/>
</svg>
